<svg xmlns="http://www.w3.org/2000/svg" viewBox="0 0 574.1 300.5" enable-background="new 0 0 574.1 300.5"><style type="text/css">.st0{fill:#0F4D87;stroke:#FFFFFF;stroke-width:17;stroke-miterlimit:10;} .st1{fill:#FEFFFF;}</style><path class="st0" d="M405.7 114.4c-36-7.5-76.2-11.7-118.7-11.7s-82.7 4.2-118.7 11.7c3.8-59.1 55.5-105.9 118.7-105.9s115 46.8 118.7 105.9zm159.9 97.2c0 32.3-38.7 61.1-99.5 80.4h-358.1c-60.8-19.2-99.5-48.1-99.5-80.4 0-41.9 65.4-78.1 159.9-94.9 36-6.4 76.2-10 118.7-10s82.7 3.6 118.7 10c94.4 16.8 159.8 53 159.8 94.9z"/><ellipse class="st1" cx="85.7" cy="216.3" rx="23.1" ry="16.9"/><ellipse class="st1" cx="278.9" cy="170.1" rx="23.1" ry="16.9"/><ellipse class="st1" cx="167.5" cy="182.7" rx="14.9" ry="10.9"/><ellipse class="st1" cx="390.8" cy="182.5" rx="14.9" ry="10.9"/><ellipse class="st1" cx="465.1" cy="216.3" rx="23.1" ry="16.9"/></svg>