<?xml version="1.0" encoding="utf-8"?>
<!-- Generator: Adobe Illustrator 18.1.0, SVG Export Plug-In . SVG Version: 6.00 Build 0)  -->
<!DOCTYPE svg PUBLIC "-//W3C//DTD SVG 1.1//EN" "http://www.w3.org/Graphics/SVG/1.1/DTD/svg11.dtd">
<svg version="1.1" id="Layer_1" xmlns="http://www.w3.org/2000/svg" xmlns:xlink="http://www.w3.org/1999/xlink" x="0px" y="0px"
	 viewBox="0 0 574.1 300.5" style="enable-background:new 0 0 574.1 300.5;" xml:space="preserve">
<style type="text/css">
	.st0{fill:#0F4D87;stroke:#FFFFFF;stroke-width:17;stroke-miterlimit:10;}
	.st1{fill:#FEFFFF;}
</style>
<path class="st0" d="M405.7,114.4c-36-7.5-76.2-11.7-118.7-11.7s-82.7,4.2-118.7,11.7C172.1,55.3,223.8,8.5,287,8.5
	S402,55.3,405.7,114.4z"/>
<path class="st0" d="M565.6,211.6c0,32.3-38.7,61.1-99.5,80.4H108c-60.8-19.2-99.5-48.1-99.5-80.4c0-41.9,65.4-78.1,159.9-94.9
	c36-6.4,76.2-10,118.7-10s82.7,3.6,118.7,10C500.2,133.5,565.6,169.7,565.6,211.6z"/>
<ellipse class="st1" cx="85.7" cy="216.3" rx="23.1" ry="16.9"/>
<ellipse class="st1" cx="278.9" cy="170.1" rx="23.1" ry="16.9"/>
<ellipse class="st1" cx="167.5" cy="182.7" rx="14.9" ry="10.9"/>
<ellipse class="st1" cx="390.8" cy="182.5" rx="14.9" ry="10.9"/>
<ellipse class="st1" cx="465.1" cy="216.3" rx="23.1" ry="16.9"/>
<g>
</g>
<g>
</g>
<g>
</g>
<g>
</g>
<g>
</g>
<g>
</g>
</svg>
