<?xml version="1.0" encoding="utf-8"?>
<!-- Generator: Adobe Illustrator 18.1.0, SVG Export Plug-In . SVG Version: 6.00 Build 0)  -->
<!DOCTYPE svg PUBLIC "-//W3C//DTD SVG 1.1//EN" "http://www.w3.org/Graphics/SVG/1.1/DTD/svg11.dtd">
<svg version="1.1" id="Layer_1" xmlns="http://www.w3.org/2000/svg" xmlns:xlink="http://www.w3.org/1999/xlink" x="0px" y="0px"
	 viewBox="0 0 612 280.4" style="enable-background:new 0 0 612 280.4;" xml:space="preserve">
<style type="text/css">
	.st0{fill:#FEFFFF;}
</style>
<path class="st0" d="M498.6,91.4c-2.3-1.7-5.1-4.2-7.7-6.8c-0.2,10.1-0.8,18.9-0.8,18.9c-0.5-7-0.8-13.3-0.8-18.8
	c-4.4,4.4-7.3,6.8-7.5,6.9c1.7-2.3,4.2-5.1,6.8-7.7c-11.8,0-18.9-0.8-18.9-0.8c5.2-0.7,12.2-0.9,18.9-0.9c-3.7-3.7-6.6-7.1-6.9-7.4
	c2.9,2.4,5.4,4.7,7.6,6.8c0-11.8,0.8-18.9,0.8-18.9c0.7,5.2,0.9,12.2,0.9,18.9c3.7-3.7,7.1-6.6,7.4-6.9c-2.4,2.9-4.7,5.5-6.8,7.7
	c10.1,0.2,18.9,0.8,18.9,0.8c-7,0.5-13.3,0.8-18.8,0.8C496.1,88.3,498.5,91.2,498.6,91.4z"/>
<path class="st0" d="M402.2,226.4c-2.3-1.7-5.1-4.2-7.7-6.8c-0.2,10.1-0.8,18.9-0.8,18.9c-0.5-7-0.8-13.3-0.8-18.8
	c-4.4,4.4-7.3,6.8-7.5,6.9c1.7-2.3,4.2-5.1,6.8-7.7c-11.8,0-18.9-0.8-18.9-0.8c5.2-0.7,12.2-0.9,18.9-0.9c-3.7-3.7-6.6-7.1-6.9-7.4
	c2.9,2.4,5.4,4.7,7.6,6.8c0-11.8,0.8-18.9,0.8-18.9c0.7,5.2,0.9,12.2,0.9,18.9c3.7-3.7,7.1-6.6,7.4-6.9c-2.4,2.9-4.7,5.5-6.8,7.7
	c10.1,0.2,18.9,0.8,18.9,0.8c-7,0.5-13.3,0.8-18.8,0.8C399.7,223.3,402.1,226.3,402.2,226.4z"/>
<path class="st0" d="M277.3,206c-2.3-1.7-5.1-4.2-7.7-6.8c-0.2,10.1-0.8,18.9-0.8,18.9c-0.5-7-0.8-13.3-0.8-18.8
	c-4.4,4.4-7.3,6.8-7.5,6.9c1.7-2.3,4.2-5.1,6.8-7.7c-11.8,0-18.9-0.8-18.9-0.8c5.2-0.7,12.2-0.9,18.9-0.9c-3.7-3.7-6.6-7.1-6.9-7.4
	c2.9,2.4,5.4,4.7,7.6,6.8c0-11.8,0.8-18.9,0.8-18.9c0.7,5.2,0.9,12.2,0.9,18.9c3.7-3.7,7.1-6.6,7.4-6.9c-2.4,2.9-4.7,5.5-6.8,7.7
	c10.1,0.2,18.9,0.8,18.9,0.8c-7,0.5-13.3,0.8-18.8,0.8C274.7,203,277.1,205.9,277.3,206z"/>
<path class="st0" d="M209.8,50.6c-2.3-1.7-5.1-4.2-7.7-6.8c-0.2,10.1-0.8,18.9-0.8,18.9c-0.5-7-0.8-13.3-0.8-18.8
	c-4.4,4.4-7.3,6.8-7.5,6.9c1.7-2.3,4.2-5.1,6.8-7.7c-11.8,0-18.9-0.8-18.9-0.8c5.2-0.7,12.2-0.9,18.9-0.9c-3.7-3.7-6.6-7.1-6.9-7.4
	c2.9,2.4,5.4,4.7,7.6,6.8c0-11.8,0.8-18.9,0.8-18.9c0.7,5.2,0.9,12.2,0.9,18.9c3.7-3.7,7.1-6.6,7.4-6.9c-2.4,2.9-4.7,5.5-6.8,7.7
	c10.1,0.2,18.9,0.8,18.9,0.8c-7,0.5-13.3,0.8-18.8,0.8C207.2,47.5,209.6,50.4,209.8,50.6z"/>
<path class="st0" d="M168,72.4c-0.8-0.6-1.7-1.4-2.6-2.3c-0.1,3.4-0.3,6.4-0.3,6.4c-0.2-2.4-0.3-4.5-0.3-6.3
	c-1.5,1.5-2.5,2.3-2.5,2.3c0.6-0.8,1.4-1.7,2.3-2.6c-4,0-6.4-0.3-6.4-0.3c1.8-0.2,4.1-0.3,6.4-0.3c-1.2-1.3-2.2-2.4-2.3-2.5
	c1,0.8,1.8,1.6,2.6,2.3c0-4,0.3-6.4,0.3-6.4c0.2,1.8,0.3,4.1,0.3,6.4c1.3-1.2,2.4-2.2,2.5-2.3c-0.8,1-1.6,1.8-2.3,2.6
	c3.4,0.1,6.4,0.3,6.4,0.3c-2.4,0.2-4.5,0.3-6.3,0.3C167.2,71.4,168,72.4,168,72.4z"/>
<path class="st0" d="M337.6,158c-0.8-0.6-1.7-1.4-2.6-2.3c-0.1,3.4-0.3,6.4-0.3,6.4c-0.2-2.4-0.3-4.5-0.3-6.3
	c-1.5,1.5-2.5,2.3-2.5,2.3c0.6-0.8,1.4-1.7,2.3-2.6c-4,0-6.4-0.3-6.4-0.3c1.8-0.2,4.1-0.3,6.4-0.3c-1.2-1.3-2.2-2.4-2.3-2.5
	c1,0.8,1.8,1.6,2.6,2.3c0-4,0.3-6.4,0.3-6.4c0.2,1.8,0.3,4.1,0.3,6.4c1.3-1.2,2.4-2.2,2.5-2.3c-0.8,1-1.6,1.8-2.3,2.6
	c3.4,0.1,6.4,0.3,6.4,0.3c-2.4,0.2-4.5,0.3-6.3,0.3C336.8,156.9,337.6,157.9,337.6,158z"/>
<path class="st0" d="M271.6,52c-0.8-0.6-1.7-1.4-2.6-2.3c-0.1,3.4-0.3,6.4-0.3,6.4c-0.2-2.4-0.3-4.5-0.3-6.3C267,51.2,266,52,266,52
	c0.6-0.8,1.4-1.7,2.3-2.6c-4,0-6.4-0.3-6.4-0.3c1.8-0.2,4.1-0.3,6.4-0.3c-1.2-1.3-2.2-2.4-2.3-2.5c1,0.8,1.8,1.6,2.6,2.3
	c0-4,0.3-6.4,0.3-6.4c0.2,1.8,0.3,4.1,0.3,6.4c1.3-1.2,2.4-2.2,2.5-2.3c-0.8,1-1.6,1.8-2.3,2.6c3.4,0.1,6.4,0.3,6.4,0.3
	c-2.4,0.2-4.5,0.3-6.3,0.3C270.8,50.9,271.6,51.9,271.6,52z"/>
<path class="st0" d="M77.8,172.2c-0.8-0.6-1.7-1.4-2.6-2.3c-0.1,3.4-0.3,6.4-0.3,6.4c-0.2-2.4-0.3-4.5-0.3-6.3
	c-1.5,1.5-2.5,2.3-2.5,2.3c0.6-0.8,1.4-1.7,2.3-2.6c-4,0-6.4-0.3-6.4-0.3c1.8-0.2,4.1-0.3,6.4-0.3c-1.2-1.3-2.2-2.4-2.3-2.5
	c1,0.8,1.8,1.6,2.6,2.3c0-4,0.3-6.4,0.3-6.4c0.2,1.8,0.3,4.1,0.3,6.4c1.3-1.2,2.4-2.2,2.5-2.3c-0.8,1-1.6,1.8-2.3,2.6
	c3.4,0.1,6.4,0.3,6.4,0.3c-2.4,0.2-4.5,0.3-6.3,0.3C76.9,171.2,77.7,172.2,77.8,172.2z"/>
<path class="st0" d="M113.7,248.7c-0.8-0.6-1.7-1.4-2.6-2.3c-0.1,3.4-0.3,6.4-0.3,6.4c-0.2-2.4-0.3-4.5-0.3-6.3
	c-1.5,1.5-2.5,2.3-2.5,2.3c0.6-0.8,1.4-1.7,2.3-2.6c-4,0-6.4-0.3-6.4-0.3c1.8-0.2,4.1-0.3,6.4-0.3c-1.2-1.3-2.2-2.4-2.3-2.5
	c1,0.8,1.8,1.6,2.6,2.3c0-4,0.3-6.4,0.3-6.4c0.2,1.8,0.3,4.1,0.3,6.4c1.3-1.2,2.4-2.2,2.5-2.3c-0.8,1-1.6,1.8-2.3,2.6
	c3.4,0.1,6.4,0.3,6.4,0.3c-2.4,0.2-4.5,0.3-6.3,0.3C112.8,247.6,113.6,248.6,113.7,248.7z"/>
<path class="st0" d="M35.6,226.4c-2.3-1.7-5.1-4.2-7.7-6.8c-0.2,10.1-0.8,18.9-0.8,18.9c-0.5-7-0.8-13.3-0.8-18.8
	c-4.4,4.4-7.3,6.8-7.5,6.9c1.7-2.3,4.2-5.1,6.8-7.7c-11.8,0-18.9-0.8-18.9-0.8c5.2-0.7,12.2-0.9,18.9-0.9c-3.7-3.7-6.6-7.1-6.9-7.4
	c2.9,2.4,5.4,4.7,7.6,6.8c0-11.8,0.8-18.9,0.8-18.9c0.7,5.2,0.9,12.2,0.9,18.9c3.7-3.7,7.1-6.6,7.4-6.9c-2.4,2.9-4.7,5.5-6.8,7.7
	c10.1,0.2,18.9,0.8,18.9,0.8c-7,0.5-13.3,0.8-18.8,0.8C33.1,223.3,35.5,226.3,35.6,226.4z"/>
<path class="st0" d="M397.7,53c-1.1-0.8-2.4-2-3.6-3.2c-0.1,4.7-0.4,8.8-0.4,8.8c-0.2-3.2-0.4-6.2-0.4-8.7c-2,2-3.4,3.2-3.5,3.2
	c0.8-1.1,2-2.3,3.1-3.5c-5.5,0-8.7-0.4-8.7-0.4c2.4-0.3,5.6-0.4,8.7-0.4c-1.7-1.7-3.1-3.3-3.2-3.4c1.3,1.1,2.5,2.2,3.5,3.1
	c0-5.5,0.4-8.7,0.4-8.7c0.3,2.4,0.4,5.6,0.4,8.7c1.7-1.7,3.3-3.1,3.4-3.2c-1.1,1.3-2.2,2.5-3.2,3.5c4.7,0.1,8.8,0.4,8.8,0.4
	c-3.2,0.2-6.2,0.4-8.7,0.4C396.5,51.6,397.6,52.9,397.7,53z"/>
<path class="st0" d="M563.7,46.1c-1.1-0.8-2.4-2-3.6-3.2c-0.1,4.7-0.4,8.8-0.4,8.8c-0.2-3.2-0.4-6.2-0.4-8.7c-2,2-3.4,3.2-3.5,3.2
	c0.8-1.1,2-2.3,3.1-3.5c-5.5,0-8.7-0.4-8.7-0.4c2.4-0.3,5.6-0.4,8.7-0.4c-1.7-1.7-3.1-3.3-3.2-3.4c1.3,1.1,2.5,2.2,3.5,3.1
	c0-5.5,0.4-8.7,0.4-8.7c0.3,2.4,0.4,5.6,0.4,8.7c1.7-1.7,3.3-3.1,3.4-3.2c-1.1,1.3-2.2,2.5-3.2,3.5c4.7,0.1,8.8,0.4,8.8,0.4
	c-3.2,0.2-6.2,0.4-8.7,0.4C562.5,44.7,563.7,46.1,563.7,46.1z"/>
<path class="st0" d="M427.5,135.3c-1.1-0.8-2.4-2-3.6-3.2c-0.1,4.7-0.4,8.8-0.4,8.8c-0.2-3.2-0.4-6.2-0.4-8.7c-2,2-3.4,3.2-3.5,3.2
	c0.8-1.1,2-2.3,3.1-3.5c-5.5,0-8.7-0.4-8.7-0.4c2.4-0.3,5.6-0.4,8.7-0.4c-1.7-1.7-3.1-3.3-3.2-3.4c1.3,1.1,2.5,2.2,3.5,3.1
	c0-5.5,0.4-8.7,0.4-8.7c0.3,2.4,0.4,5.6,0.4,8.7c1.7-1.7,3.3-3.1,3.4-3.2c-1.1,1.3-2.2,2.5-3.2,3.5c4.7,0.1,8.8,0.4,8.8,0.4
	c-3.2,0.2-6.2,0.4-8.7,0.4C426.3,133.9,427.4,135.3,427.5,135.3z"/>
<path class="st0" d="M582.6,212.1c-1.1-0.8-2.4-2-3.6-3.2c-0.1,4.7-0.4,8.8-0.4,8.8c-0.2-3.2-0.4-6.2-0.4-8.7c-2,2-3.4,3.2-3.5,3.2
	c0.8-1.1,2-2.3,3.1-3.5c-5.5,0-8.7-0.4-8.7-0.4c2.4-0.3,5.6-0.4,8.7-0.4c-1.7-1.7-3.1-3.3-3.2-3.4c1.3,1.1,2.5,2.2,3.5,3.1
	c0-5.5,0.4-8.7,0.4-8.7c0.3,2.4,0.4,5.6,0.4,8.7c1.7-1.7,3.3-3.1,3.4-3.2c-1.1,1.3-2.2,2.5-3.2,3.5c4.7,0.1,8.8,0.4,8.8,0.4
	c-3.2,0.2-6.2,0.4-8.7,0.4C581.4,210.7,582.5,212.1,582.6,212.1z"/>
<path class="st0" d="M504.2,183.4c-1.1-0.8-2.4-2-3.6-3.2c-0.1,4.7-0.4,8.8-0.4,8.8c-0.2-3.2-0.4-6.2-0.4-8.7c-2,2-3.4,3.2-3.5,3.2
	c0.8-1.1,2-2.3,3.1-3.5c-5.5,0-8.7-0.4-8.7-0.4c2.4-0.3,5.6-0.4,8.7-0.4c-1.7-1.7-3.1-3.3-3.2-3.4c1.3,1.1,2.5,2.2,3.5,3.1
	c0-5.5,0.4-8.7,0.4-8.7c0.3,2.4,0.4,5.6,0.4,8.7c1.7-1.7,3.3-3.1,3.4-3.2c-1.1,1.3-2.2,2.5-3.2,3.5c4.7,0.1,8.8,0.4,8.8,0.4
	c-3.2,0.2-6.2,0.4-8.7,0.4C503,182,504.1,183.4,504.2,183.4z"/>
<path class="st0" d="M217.3,248.9c-0.8-0.6-1.8-1.5-2.8-2.5c-0.1,3.7-0.3,6.8-0.3,6.8c-0.2-2.5-0.3-4.8-0.3-6.8
	c-1.6,1.6-2.6,2.5-2.7,2.5c0.6-0.8,1.5-1.8,2.5-2.8c-4.3,0-6.8-0.3-6.8-0.3c1.9-0.3,4.4-0.3,6.8-0.3c-1.3-1.4-2.4-2.6-2.5-2.7
	c1,0.9,2,1.7,2.8,2.5c0-4.3,0.3-6.8,0.3-6.8c0.3,1.9,0.3,4.4,0.3,6.8c1.4-1.3,2.6-2.4,2.7-2.5c-0.9,1.1-1.7,2-2.5,2.8
	c3.7,0.1,6.8,0.3,6.8,0.3c-2.5,0.2-4.8,0.3-6.8,0.3C216.4,247.7,217.3,248.8,217.3,248.9z"/>
<path class="st0" d="M513.6,256.2c-0.8-0.6-1.8-1.5-2.8-2.5c-0.1,3.7-0.3,6.8-0.3,6.8c-0.2-2.5-0.3-4.8-0.3-6.8
	c-1.6,1.6-2.6,2.5-2.7,2.5c0.6-0.8,1.5-1.8,2.5-2.8c-4.3,0-6.8-0.3-6.8-0.3c1.9-0.3,4.4-0.3,6.8-0.3c-1.3-1.4-2.4-2.6-2.5-2.7
	c1,0.9,2,1.7,2.8,2.5c0-4.3,0.3-6.8,0.3-6.8c0.3,1.9,0.3,4.4,0.3,6.8c1.4-1.3,2.6-2.4,2.7-2.5c-0.9,1.1-1.7,2-2.5,2.8
	c3.7,0.1,6.8,0.3,6.8,0.3c-2.5,0.2-4.8,0.3-6.8,0.3C512.7,255.1,513.5,256.2,513.6,256.2z"/>
<path class="st0" d="M601,127.1c-0.8-0.6-1.8-1.5-2.8-2.5c-0.1,3.7-0.3,6.8-0.3,6.8c-0.2-2.5-0.3-4.8-0.3-6.8
	c-1.6,1.6-2.6,2.5-2.7,2.5c0.6-0.8,1.5-1.8,2.5-2.8c-4.3,0-6.8-0.3-6.8-0.3c1.9-0.3,4.4-0.3,6.8-0.3c-1.3-1.4-2.4-2.6-2.5-2.7
	c1,0.9,2,1.7,2.8,2.5c0-4.3,0.3-6.8,0.3-6.8c0.3,1.9,0.3,4.4,0.3,6.8c1.4-1.3,2.6-2.4,2.7-2.5c-0.9,1.1-1.7,2-2.5,2.8
	c3.7,0.1,6.8,0.3,6.8,0.3c-2.5,0.2-4.8,0.3-6.8,0.3C600.1,126,600.9,127.1,601,127.1z"/>
<path class="st0" d="M184,173.1c-0.8-0.6-1.8-1.5-2.8-2.5c-0.1,3.7-0.3,6.8-0.3,6.8c-0.2-2.5-0.3-4.8-0.3-6.8
	c-1.6,1.6-2.6,2.5-2.7,2.5c0.6-0.8,1.5-1.8,2.5-2.8c-4.3,0-6.8-0.3-6.8-0.3c1.9-0.3,4.4-0.3,6.8-0.3c-1.3-1.4-2.4-2.6-2.5-2.7
	c1,0.9,2,1.7,2.8,2.5c0-4.3,0.3-6.8,0.3-6.8c0.3,1.9,0.3,4.4,0.3,6.8c1.4-1.3,2.6-2.4,2.7-2.5c-0.9,1.1-1.7,2-2.5,2.8
	c3.7,0.1,6.8,0.3,6.8,0.3c-2.5,0.2-4.8,0.3-6.8,0.3C183.1,172,183.9,173.1,184,173.1z"/>
<path class="st0" d="M78,23.9c-0.8-0.6-1.8-1.5-2.8-2.5c-0.1,3.7-0.3,6.8-0.3,6.8c-0.2-2.5-0.3-4.8-0.3-6.8
	c-1.6,1.6-2.6,2.5-2.7,2.5c0.6-0.8,1.5-1.8,2.5-2.8c-4.3,0-6.8-0.3-6.8-0.3c1.9-0.3,4.4-0.3,6.8-0.3C73,19.2,72,18,71.8,17.9
	c1,0.9,2,1.7,2.8,2.5c0-4.3,0.3-6.8,0.3-6.8c0.3,1.9,0.3,4.4,0.3,6.8c1.4-1.3,2.6-2.4,2.7-2.5c-0.9,1.1-1.7,2-2.5,2.8
	c3.7,0.1,6.8,0.3,6.8,0.3c-2.5,0.2-4.8,0.3-6.8,0.3C77.1,22.8,77.9,23.8,78,23.9z"/>
<path class="st0" d="M58.7,112.6c-1.4-1-3.1-2.6-4.7-4.2c-0.1,6.2-0.5,11.5-0.5,11.5c-0.3-4.3-0.5-8.1-0.5-11.5
	c-2.7,2.7-4.5,4.2-4.5,4.2c1-1.4,2.6-3.1,4.1-4.7c-7.2,0-11.5-0.5-11.5-0.5c3.2-0.4,7.4-0.6,11.5-0.5c-2.2-2.3-4-4.3-4.2-4.5
	c1.8,1.5,3.3,2.9,4.6,4.1c0-7.2,0.5-11.5,0.5-11.5c0.4,3.2,0.6,7.4,0.5,11.5c2.3-2.2,4.3-4,4.5-4.2c-1.5,1.8-2.9,3.3-4.2,4.7
	c6.2,0.1,11.5,0.5,11.5,0.5c-4.3,0.3-8.1,0.5-11.5,0.5C57.1,110.7,58.6,112.5,58.7,112.6z"/>
<g>
</g>
<g>
</g>
<g>
</g>
<g>
</g>
<g>
</g>
<g>
</g>
</svg>
