<svg xmlns="http://www.w3.org/2000/svg" viewBox="0 0 612 280.4" enable-background="new 0 0 612 280.4"><style type="text/css">.st0{fill:#FEFFFF;}</style><path class="st0" d="M498.6 91.4c-2.3-1.7-5.1-4.2-7.7-6.8-.2 10.1-.8 18.9-.8 18.9-.5-7-.8-13.3-.8-18.8-4.4 4.4-7.3 6.8-7.5 6.9 1.7-2.3 4.2-5.1 6.8-7.7-11.8 0-18.9-.8-18.9-.8 5.2-.7 12.2-.9 18.9-.9-3.7-3.7-6.6-7.1-6.9-7.4 2.9 2.4 5.4 4.7 7.6 6.8 0-11.8.8-18.9.8-18.9.7 5.2.9 12.2.9 18.9 3.7-3.7 7.1-6.6 7.4-6.9-2.4 2.9-4.7 5.5-6.8 7.7 10.1.2 18.9.8 18.9.8-7 .5-13.3.8-18.8.8 4.4 4.3 6.8 7.2 6.9 7.4zm-96.4 135c-2.3-1.7-5.1-4.2-7.7-6.8-.2 10.1-.8 18.9-.8 18.9-.5-7-.8-13.3-.8-18.8-4.4 4.4-7.3 6.8-7.5 6.9 1.7-2.3 4.2-5.1 6.8-7.7-11.8 0-18.9-.8-18.9-.8 5.2-.7 12.2-.9 18.9-.9-3.7-3.7-6.6-7.1-6.9-7.4 2.9 2.4 5.4 4.7 7.6 6.8 0-11.8.8-18.9.8-18.9.7 5.2.9 12.2.9 18.9 3.7-3.7 7.1-6.6 7.4-6.9-2.4 2.9-4.7 5.5-6.8 7.7 10.1.2 18.9.8 18.9.8-7 .5-13.3.8-18.8.8 4.4 4.3 6.8 7.3 6.9 7.4zm-124.9-20.4c-2.3-1.7-5.1-4.2-7.7-6.8-.2 10.1-.8 18.9-.8 18.9-.5-7-.8-13.3-.8-18.8-4.4 4.4-7.3 6.8-7.5 6.9 1.7-2.3 4.2-5.1 6.8-7.7-11.8 0-18.9-.8-18.9-.8 5.2-.7 12.2-.9 18.9-.9-3.7-3.7-6.6-7.1-6.9-7.4 2.9 2.4 5.4 4.7 7.6 6.8 0-11.8.8-18.9.8-18.9.7 5.2.9 12.2.9 18.9 3.7-3.7 7.1-6.6 7.4-6.9-2.4 2.9-4.7 5.5-6.8 7.7 10.1.2 18.9.8 18.9.8-7 .5-13.3.8-18.8.8 4.3 4.4 6.7 7.3 6.9 7.4zm-67.5-155.4c-2.3-1.7-5.1-4.2-7.7-6.8-.2 10.1-.8 18.9-.8 18.9-.5-7-.8-13.3-.8-18.8-4.4 4.4-7.3 6.8-7.5 6.9 1.7-2.3 4.2-5.1 6.8-7.7-11.8 0-18.9-.8-18.9-.8 5.2-.7 12.2-.9 18.9-.9-3.7-3.7-6.6-7.1-6.9-7.4 2.9 2.4 5.4 4.7 7.6 6.8 0-11.8.8-18.9.8-18.9.7 5.2.9 12.2.9 18.9 3.7-3.7 7.1-6.6 7.4-6.9-2.4 2.9-4.7 5.5-6.8 7.7 10.1.2 18.9.8 18.9.8-7 .5-13.3.8-18.8.8 4.3 4.3 6.7 7.2 6.9 7.4zm-41.8 21.8c-.8-.6-1.7-1.4-2.6-2.3-.1 3.4-.3 6.4-.3 6.4-.2-2.4-.3-4.5-.3-6.3-1.5 1.5-2.5 2.3-2.5 2.3.6-.8 1.4-1.7 2.3-2.6-4 0-6.4-.3-6.4-.3 1.8-.2 4.1-.3 6.4-.3l-2.3-2.5c1 .8 1.8 1.6 2.6 2.3 0-4 .3-6.4.3-6.4.2 1.8.3 4.1.3 6.4l2.5-2.3c-.8 1-1.6 1.8-2.3 2.6 3.4.1 6.4.3 6.4.3-2.4.2-4.5.3-6.3.3 1.4 1.4 2.2 2.4 2.2 2.4zm169.6 85.6c-.8-.6-1.7-1.4-2.6-2.3-.1 3.4-.3 6.4-.3 6.4-.2-2.4-.3-4.5-.3-6.3-1.5 1.5-2.5 2.3-2.5 2.3.6-.8 1.4-1.7 2.3-2.6-4 0-6.4-.3-6.4-.3 1.8-.2 4.1-.3 6.4-.3l-2.3-2.5c1 .8 1.8 1.6 2.6 2.3 0-4 .3-6.4.3-6.4.2 1.8.3 4.1.3 6.4l2.5-2.3c-.8 1-1.6 1.8-2.3 2.6 3.4.1 6.4.3 6.4.3-2.4.2-4.5.3-6.3.3 1.4 1.3 2.2 2.3 2.2 2.4zm-66-106c-.8-.6-1.7-1.4-2.6-2.3-.1 3.4-.3 6.4-.3 6.4-.2-2.4-.3-4.5-.3-6.3-1.4 1.4-2.4 2.2-2.4 2.2.6-.8 1.4-1.7 2.3-2.6-4 0-6.4-.3-6.4-.3 1.8-.2 4.1-.3 6.4-.3l-2.3-2.5c1 .8 1.8 1.6 2.6 2.3 0-4 .3-6.4.3-6.4.2 1.8.3 4.1.3 6.4l2.5-2.3c-.8 1-1.6 1.8-2.3 2.6 3.4.1 6.4.3 6.4.3-2.4.2-4.5.3-6.3.3 1.3 1.4 2.1 2.4 2.1 2.5zm-193.8 120.2c-.8-.6-1.7-1.4-2.6-2.3-.1 3.4-.3 6.4-.3 6.4-.2-2.4-.3-4.5-.3-6.3-1.5 1.5-2.5 2.3-2.5 2.3.6-.8 1.4-1.7 2.3-2.6-4 0-6.4-.3-6.4-.3 1.8-.2 4.1-.3 6.4-.3l-2.3-2.5c1 .8 1.8 1.6 2.6 2.3 0-4 .3-6.4.3-6.4.2 1.8.3 4.1.3 6.4l2.5-2.3c-.8 1-1.6 1.8-2.3 2.6 3.4.1 6.4.3 6.4.3-2.4.2-4.5.3-6.3.3 1.3 1.4 2.1 2.4 2.2 2.4zm35.9 76.5c-.8-.6-1.7-1.4-2.6-2.3-.1 3.4-.3 6.4-.3 6.4-.2-2.4-.3-4.5-.3-6.3-1.5 1.5-2.5 2.3-2.5 2.3.6-.8 1.4-1.7 2.3-2.6-4 0-6.4-.3-6.4-.3 1.8-.2 4.1-.3 6.4-.3l-2.3-2.5c1 .8 1.8 1.6 2.6 2.3 0-4 .3-6.4.3-6.4.2 1.8.3 4.1.3 6.4l2.5-2.3c-.8 1-1.6 1.8-2.3 2.6 3.4.1 6.4.3 6.4.3-2.4.2-4.5.3-6.3.3 1.3 1.3 2.1 2.3 2.2 2.4zm-78.1-22.3c-2.3-1.7-5.1-4.2-7.7-6.8-.2 10.1-.8 18.9-.8 18.9-.5-7-.8-13.3-.8-18.8-4.4 4.4-7.3 6.8-7.5 6.9 1.7-2.3 4.2-5.1 6.8-7.7-11.8 0-18.9-.8-18.9-.8 5.2-.7 12.2-.9 18.9-.9-3.7-3.7-6.6-7.1-6.9-7.4 2.9 2.4 5.4 4.7 7.6 6.8 0-11.8.8-18.9.8-18.9.7 5.2.9 12.2.9 18.9 3.7-3.7 7.1-6.6 7.4-6.9-2.4 2.9-4.7 5.5-6.8 7.7 10.1.2 18.9.8 18.9.8-7 .5-13.3.8-18.8.8 4.4 4.3 6.8 7.3 6.9 7.4zm362.1-173.4c-1.1-.8-2.4-2-3.6-3.2-.1 4.7-.4 8.8-.4 8.8-.2-3.2-.4-6.2-.4-8.7-2 2-3.4 3.2-3.5 3.2.8-1.1 2-2.3 3.1-3.5-5.5 0-8.7-.4-8.7-.4 2.4-.3 5.6-.4 8.7-.4-1.7-1.7-3.1-3.3-3.2-3.4 1.3 1.1 2.5 2.2 3.5 3.1 0-5.5.4-8.7.4-8.7.3 2.4.4 5.6.4 8.7 1.7-1.7 3.3-3.1 3.4-3.2-1.1 1.3-2.2 2.5-3.2 3.5 4.7.1 8.8.4 8.8.4-3.2.2-6.2.4-8.7.4 2.2 2 3.3 3.3 3.4 3.4zm166-6.9c-1.1-.8-2.4-2-3.6-3.2-.1 4.7-.4 8.8-.4 8.8-.2-3.2-.4-6.2-.4-8.7-2 2-3.4 3.2-3.5 3.2.8-1.1 2-2.3 3.1-3.5-5.5 0-8.7-.4-8.7-.4 2.4-.3 5.6-.4 8.7-.4-1.7-1.7-3.1-3.3-3.2-3.4 1.3 1.1 2.5 2.2 3.5 3.1 0-5.5.4-8.7.4-8.7.3 2.4.4 5.6.4 8.7 1.7-1.7 3.3-3.1 3.4-3.2-1.1 1.3-2.2 2.5-3.2 3.5 4.7.1 8.8.4 8.8.4-3.2.2-6.2.4-8.7.4 2.2 2 3.4 3.4 3.4 3.4zm-136.2 89.2c-1.1-.8-2.4-2-3.6-3.2-.1 4.7-.4 8.8-.4 8.8-.2-3.2-.4-6.2-.4-8.7-2 2-3.4 3.2-3.5 3.2.8-1.1 2-2.3 3.1-3.5-5.5 0-8.7-.4-8.7-.4 2.4-.3 5.6-.4 8.7-.4-1.7-1.7-3.1-3.3-3.2-3.4 1.3 1.1 2.5 2.2 3.5 3.1 0-5.5.4-8.7.4-8.7.3 2.4.4 5.6.4 8.7 1.7-1.7 3.3-3.1 3.4-3.2-1.1 1.3-2.2 2.5-3.2 3.5 4.7.1 8.8.4 8.8.4-3.2.2-6.2.4-8.7.4 2.2 2 3.3 3.4 3.4 3.4zm155.1 76.8c-1.1-.8-2.4-2-3.6-3.2-.1 4.7-.4 8.8-.4 8.8-.2-3.2-.4-6.2-.4-8.7-2 2-3.4 3.2-3.5 3.2.8-1.1 2-2.3 3.1-3.5-5.5 0-8.7-.4-8.7-.4 2.4-.3 5.6-.4 8.7-.4-1.7-1.7-3.1-3.3-3.2-3.4 1.3 1.1 2.5 2.2 3.5 3.1 0-5.5.4-8.7.4-8.7.3 2.4.4 5.6.4 8.7 1.7-1.7 3.3-3.1 3.4-3.2-1.1 1.3-2.2 2.5-3.2 3.5 4.7.1 8.8.4 8.8.4-3.2.2-6.2.4-8.7.4 2.2 2 3.3 3.4 3.4 3.4zm-78.4-28.7c-1.1-.8-2.4-2-3.6-3.2-.1 4.7-.4 8.8-.4 8.8-.2-3.2-.4-6.2-.4-8.7-2 2-3.4 3.2-3.5 3.2.8-1.1 2-2.3 3.1-3.5-5.5 0-8.7-.4-8.7-.4 2.4-.3 5.6-.4 8.7-.4-1.7-1.7-3.1-3.3-3.2-3.4 1.3 1.1 2.5 2.2 3.5 3.1 0-5.5.4-8.7.4-8.7.3 2.4.4 5.6.4 8.7 1.7-1.7 3.3-3.1 3.4-3.2-1.1 1.3-2.2 2.5-3.2 3.5 4.7.1 8.8.4 8.8.4-3.2.2-6.2.4-8.7.4 2.2 2 3.3 3.4 3.4 3.4zm-286.9 65.5c-.8-.6-1.8-1.5-2.8-2.5-.1 3.7-.3 6.8-.3 6.8-.2-2.5-.3-4.8-.3-6.8-1.6 1.6-2.6 2.5-2.7 2.5.6-.8 1.5-1.8 2.5-2.8-4.3 0-6.8-.3-6.8-.3 1.9-.3 4.4-.3 6.8-.3l-2.5-2.7c1 .9 2 1.7 2.8 2.5 0-4.3.3-6.8.3-6.8.3 1.9.3 4.4.3 6.8l2.7-2.5c-.9 1.1-1.7 2-2.5 2.8 3.7.1 6.8.3 6.8.3-2.5.2-4.8.3-6.8.3 1.6 1.5 2.5 2.6 2.5 2.7zm296.3 7.3c-.8-.6-1.8-1.5-2.8-2.5-.1 3.7-.3 6.8-.3 6.8-.2-2.5-.3-4.8-.3-6.8-1.6 1.6-2.6 2.5-2.7 2.5.6-.8 1.5-1.8 2.5-2.8-4.3 0-6.8-.3-6.8-.3 1.9-.3 4.4-.3 6.8-.3l-2.5-2.7c1 .9 2 1.7 2.8 2.5 0-4.3.3-6.8.3-6.8.3 1.9.3 4.4.3 6.8l2.7-2.5c-.9 1.1-1.7 2-2.5 2.8 3.7.1 6.8.3 6.8.3-2.5.2-4.8.3-6.8.3 1.6 1.6 2.4 2.7 2.5 2.7zm87.4-129.1c-.8-.6-1.8-1.5-2.8-2.5-.1 3.7-.3 6.8-.3 6.8-.2-2.5-.3-4.8-.3-6.8-1.6 1.6-2.6 2.5-2.7 2.5.6-.8 1.5-1.8 2.5-2.8-4.3 0-6.8-.3-6.8-.3 1.9-.3 4.4-.3 6.8-.3l-2.5-2.7c1 .9 2 1.7 2.8 2.5 0-4.3.3-6.8.3-6.8.3 1.9.3 4.4.3 6.8l2.7-2.5c-.9 1.1-1.7 2-2.5 2.8 3.7.1 6.8.3 6.8.3-2.5.2-4.8.3-6.8.3 1.6 1.6 2.4 2.7 2.5 2.7zm-417 46c-.8-.6-1.8-1.5-2.8-2.5-.1 3.7-.3 6.8-.3 6.8-.2-2.5-.3-4.8-.3-6.8-1.6 1.6-2.6 2.5-2.7 2.5.6-.8 1.5-1.8 2.5-2.8-4.3 0-6.8-.3-6.8-.3 1.9-.3 4.4-.3 6.8-.3l-2.5-2.7c1 .9 2 1.7 2.8 2.5 0-4.3.3-6.8.3-6.8.3 1.9.3 4.4.3 6.8l2.7-2.5c-.9 1.1-1.7 2-2.5 2.8 3.7.1 6.8.3 6.8.3-2.5.2-4.8.3-6.8.3 1.6 1.6 2.4 2.7 2.5 2.7zm-106-149.2c-.8-.6-1.8-1.5-2.8-2.5-.1 3.7-.3 6.8-.3 6.8-.2-2.5-.3-4.8-.3-6.8-1.6 1.6-2.6 2.5-2.7 2.5.6-.8 1.5-1.8 2.5-2.8-4.3 0-6.8-.3-6.8-.3 1.9-.3 4.4-.3 6.8-.3-1.4-1.3-2.4-2.5-2.6-2.6 1 .9 2 1.7 2.8 2.5 0-4.3.3-6.8.3-6.8.3 1.9.3 4.4.3 6.8l2.7-2.5c-.9 1.1-1.7 2-2.5 2.8 3.7.1 6.8.3 6.8.3-2.5.2-4.8.3-6.8.3 1.7 1.5 2.5 2.5 2.6 2.6zm-19.3 88.7c-1.4-1-3.1-2.6-4.7-4.2-.1 6.2-.5 11.5-.5 11.5-.3-4.3-.5-8.1-.5-11.5-2.7 2.7-4.5 4.2-4.5 4.2 1-1.4 2.6-3.1 4.1-4.7-7.2 0-11.5-.5-11.5-.5 3.2-.4 7.4-.6 11.5-.5-2.2-2.3-4-4.3-4.2-4.5 1.8 1.5 3.3 2.9 4.6 4.1 0-7.2.5-11.5.5-11.5.4 3.2.6 7.4.5 11.5 2.3-2.2 4.3-4 4.5-4.2-1.5 1.8-2.9 3.3-4.2 4.7 6.2.1 11.5.5 11.5.5-4.3.3-8.1.5-11.5.5 2.8 2.7 4.3 4.5 4.4 4.6z"/></svg>