<svg xmlns="http://www.w3.org/2000/svg" viewBox="0 0 612 249.1" enable-background="new 0 0 612 249.1"><style type="text/css">.st0{fill:#FEFFFF;}</style><ellipse class="st0" cx="14.7" cy="30.6" rx="1" ry="1"/><ellipse class="st0" cx="50" cy="58.6" rx="1" ry="1"/><ellipse class="st0" cx="33.7" cy="12.8" rx="1" ry="1"/><ellipse class="st0" cx="1" cy="9.5" rx="1" ry="1"/><ellipse class="st0" cx="7.7" cy="113.7" rx="1" ry="1"/><ellipse class="st0" cx="136.5" cy="121.3" rx="1" ry="1"/><ellipse class="st0" cx="112.6" cy="97.5" rx="1" ry="1"/><ellipse class="st0" cx="176.4" cy="161.2" rx="1" ry="1"/><ellipse class="st0" cx="93.1" cy="133.8" rx="1.8" ry="1.8"/><ellipse class="st0" cx="21.4" cy="79" rx="1.8" ry="1.8"/><ellipse class="st0" cx="231" cy="194.7" rx="1.8" ry="1.8"/><ellipse class="st0" cx="123.4" cy="24.9" rx="1.8" ry="1.8"/><ellipse class="st0" cx="232.7" cy="53.3" rx="1.8" ry="1.8"/><ellipse class="st0" cx="199.6" cy="87" rx="1.8" ry="1.8"/><ellipse class="st0" cx="78.2" cy="231.4" rx="1.8" ry="1.8"/><ellipse class="st0" cx="537.4" cy="120.3" rx="1.8" ry="1.8"/><ellipse class="st0" cx="347.8" cy="122.2" rx="1.8" ry="1.8"/><ellipse class="st0" cx="547.5" cy="209.3" rx="1.8" ry="1.8"/><ellipse class="st0" cx="591.8" cy="141.5" rx="1.8" ry="1.8"/><ellipse class="st0" cx="549.2" cy="77.1" rx="1.8" ry="1.8"/><ellipse class="st0" cx="512.9" cy="42.5" rx="1.8" ry="1.8"/><ellipse class="st0" cx="412.5" cy="27.6" rx="1.8" ry="1.8"/><ellipse class="st0" cx="22.4" cy="149.8" rx="1" ry="1"/><ellipse class="st0" cx="129.8" cy="231.9" rx="1" ry="1"/><ellipse class="st0" cx="86.5" cy="224.6" rx="1" ry="1"/><ellipse class="st0" cx="600.5" cy="202.5" rx="1" ry="1"/><ellipse class="st0" cx="579.4" cy="224.6" rx="1" ry="1"/><ellipse class="st0" cx="579.4" cy="168" rx="1" ry="1"/><ellipse class="st0" cx="446.2" cy="237.2" rx="1" ry="1"/><ellipse class="st0" cx="400.4" cy="59.5" rx="1" ry="1"/><ellipse class="st0" cx="110.6" cy="188.8" rx="1" ry="1"/><ellipse class="st0" cx="67.7" cy="169" rx="1" ry="1"/><ellipse class="st0" cx="61.1" cy="29.6" rx="1" ry="1"/><ellipse class="st0" cx="293.7" cy="31.8" rx="1" ry="1"/><ellipse class="st0" cx="216.5" cy="140.5" rx="1" ry="1"/><ellipse class="st0" cx="215.5" cy="180" rx="1" ry="1"/><ellipse class="st0" cx="448.2" cy="148.9" rx="1" ry="1"/><ellipse class="st0" cx="233.7" cy="60.5" rx="1" ry="1"/><ellipse class="st0" cx="544.5" cy="162.3" rx="1" ry="1"/><ellipse class="st0" cx="511.1" cy="150.8" rx="1" ry="1"/><ellipse class="st0" cx="479.2" cy="127.2" rx="1" ry="1"/><ellipse class="st0" cx="436.6" cy="110.9" rx="1" ry="1"/><ellipse class="st0" cx="400.4" cy="96.6" rx="1" ry="1"/><ellipse class="st0" cx="400.4" cy="160.2" rx="1" ry="1"/><ellipse class="st0" cx="346.8" cy="170.9" rx="1" ry="1"/><ellipse class="st0" cx="320.7" cy="204.4" rx="1" ry="1"/><ellipse class="st0" cx="391.9" cy="126.2" rx="1" ry="1"/><ellipse class="st0" cx="292.7" cy="85.1" rx="1" ry="1"/><ellipse class="st0" cx="578.4" cy="41.5" rx="1" ry="1"/><ellipse class="st0" cx="546.5" cy="28.6" rx="1" ry="1"/><ellipse class="st0" cx="489.7" cy="16.5" rx="1" ry="1"/><ellipse class="st0" cx="448.2" cy="18.5" rx="1" ry="1"/><ellipse class="st0" cx="452" cy="51.5" rx="1" ry="1"/><ellipse class="st0" cx="592.8" cy="86" rx="1" ry="1"/><ellipse class="st0" cx="610" cy="22.9" rx="1" ry="1"/><ellipse class="st0" cx="539.1" cy="80.8" rx="1" ry="1"/><ellipse class="st0" cx="488.7" cy="195.6" rx="1" ry="1"/><ellipse class="st0" cx="461.2" cy="196.6" rx="1" ry="1"/><ellipse class="st0" cx="300.1" cy="146.9" rx="1" ry="1"/><ellipse class="st0" cx="233.7" cy="97.5" rx="1" ry="1"/><ellipse class="st0" cx="371.7" cy="23.9" rx="1" ry="1"/><ellipse class="st0" cx="370.7" cy="67.8" rx="1" ry="1"/><ellipse class="st0" cx="329.4" cy="16.6" rx="1" ry="1"/><ellipse class="st0" cx="247.1" cy="15.4" rx="1" ry="1"/><ellipse class="st0" cx="338.1" cy="227.5" rx="1" ry="1"/><ellipse class="st0" cx="283.8" cy="227.5" rx="1" ry="1"/><ellipse class="st0" cx="182.3" cy="17.5" rx="1" ry="1"/><ellipse class="st0" cx="160.1" cy="7" rx="1" ry="1"/><ellipse class="st0" cx="103.1" cy="61.5" rx="1" ry="1"/><ellipse class="st0" cx="159.1" cy="88.9" rx="1" ry="1"/><ellipse class="st0" cx="7.7" cy="236.2" rx="1" ry="1"/><ellipse class="st0" cx="6.7" cy="188.8" rx="1" ry="1"/></svg>